<svg version="1.1" id="Layer_1" xmlns="http://www.w3.org/2000/svg" xmlns:xlink="http://www.w3.org/1999/xlink" x="0px" y="0px"
	 width="100%" viewBox="0 0 1024 1024" enable-background="new 0 0 1024 1024" xml:space="preserve">
<path fill="#000000" opacity="1.000000" stroke="none" 
	d="
M499.000000,1025.000000 
	C332.666656,1025.000000 166.833328,1025.000000 1.000000,1025.000000 
	C1.000000,683.666687 1.000000,342.333344 1.000000,1.000000 
	C342.333344,1.000000 683.666687,1.000000 1025.000000,1.000000 
	C1025.000000,342.333344 1025.000000,683.666687 1025.000000,1025.000000 
	C849.833313,1025.000000 674.666687,1025.000000 499.000000,1025.000000 
M287.023315,701.980774 
	C287.023315,701.980774 286.907379,701.984436 287.024719,702.543701 
	C287.341064,702.727539 287.657440,702.911377 287.996887,703.017822 
	C287.996887,703.017822 287.930298,703.063477 288.210785,703.758362 
	C293.373474,704.847534 298.531921,706.859497 303.699463,706.883179 
	C355.125916,707.118713 406.553833,707.037598 457.981293,706.977783 
	C459.806335,706.975647 461.617188,706.123901 463.461273,705.949646 
	C464.271454,705.873108 465.148499,706.504333 465.999634,707.720154 
	C465.334869,711.823669 464.670074,715.927185 463.222260,720.194031 
	C462.801208,721.033142 461.929047,721.933289 462.032928,722.701355 
	C462.665466,727.377686 460.367950,728.242432 456.250610,728.081238 
	C448.954590,727.795715 441.638458,727.949646 434.332611,728.050903 
	C432.853607,728.071350 431.382721,728.673706 430.016296,729.017883 
	C430.016296,729.017883 430.033844,728.910706 429.225586,728.997681 
	C422.512115,729.900208 425.449158,735.170776 425.064697,738.703369 
	C424.704987,742.008423 427.020935,743.258972 430.383484,743.145264 
	C430.383484,743.145264 430.569763,742.961609 431.152130,743.672119 
	C448.659393,743.777832 466.166656,743.891846 483.674072,743.946533 
	C484.168976,743.948059 484.665802,743.317261 486.070862,743.115662 
	C499.281525,743.124146 512.493591,743.021423 525.702332,743.185059 
	C532.977600,743.275208 540.244934,744.018738 547.520142,744.104736 
	C561.064331,744.264832 574.612061,744.216187 588.157104,744.104309 
	C590.214478,744.087280 592.265320,743.264648 595.035400,742.822876 
	C596.043579,742.571411 597.051819,742.319946 598.000000,742.000000 
	C598.000000,742.000000 598.052307,742.074402 598.861816,742.034424 
	C602.724670,737.007263 601.921265,731.191467 597.002441,728.998230 
	C597.002441,728.998230 597.063782,728.933350 596.825439,728.255676 
	C595.888489,728.228882 594.951538,728.202026 593.085327,728.031250 
	C583.054932,728.007141 573.024536,727.983032 562.978027,727.107056 
	C562.271362,723.675476 561.564636,720.243896 560.842590,715.938538 
	C560.842590,713.076111 560.842590,710.213684 560.842590,707.007507 
	C562.091797,707.007507 563.902771,707.007507 565.713745,707.007507 
	C618.785400,707.007507 671.857117,707.036621 724.928528,706.923401 
	C727.650208,706.917603 730.369202,705.690796 732.990906,705.006592 
	C732.990906,705.006592 732.966125,705.105469 733.682007,704.987793 
	C734.479370,704.677307 735.276672,704.366821 736.003845,704.031067 
	C736.003845,704.031067 735.994019,704.105042 736.639893,704.001465 
	C737.120728,703.683350 737.601562,703.365234 738.011719,703.023865 
	C738.011719,703.023865 738.018005,703.098083 738.544739,702.959595 
	C738.691345,702.651428 738.838013,702.343323 739.591797,701.817871 
	C740.732727,700.911499 741.873718,700.005066 743.659363,698.992371 
	C744.129761,698.681458 744.600098,698.370544 745.004639,698.004150 
	C745.004639,698.004150 745.047852,698.078613 745.766907,698.044006 
	C746.202515,697.381653 746.638123,696.719238 747.000000,696.002441 
	C747.000000,696.002441 747.065125,696.067383 747.707031,695.881775 
	C748.167053,694.931702 748.627075,693.981628 749.012207,693.004761 
	C749.012207,693.004761 749.058105,693.069702 749.745056,692.848877 
	C752.661926,688.709839 755.197632,684.458740 753.976135,678.122131 
	C753.985413,622.013062 754.020020,565.904053 753.995850,509.794983 
	C753.976929,465.845490 753.885315,421.896027 753.959595,377.102692 
	C754.367981,371.125549 751.895142,366.258575 748.028564,361.201630 
	C746.713867,360.107300 745.399109,359.013000 743.955811,357.417969 
	C743.668213,357.247833 743.380676,357.077667 742.953186,356.413055 
	C742.669556,356.239044 742.385925,356.065033 741.814819,355.236084 
	C739.231140,354.132294 736.647461,353.028534 733.711060,351.184906 
	C731.324219,350.787018 728.937439,350.041870 726.550476,350.040924 
	C584.077087,349.984131 441.603638,349.979095 299.130280,350.067780 
	C296.731201,350.069275 294.332825,351.277527 291.204590,351.976685 
	C289.768494,352.617798 288.332367,353.258911 286.410950,354.046326 
	C286.264191,354.333130 286.117432,354.619904 285.337372,354.987640 
	C284.865997,355.298981 284.394653,355.610321 283.420227,356.059845 
	C283.259796,356.354034 283.099396,356.648254 282.229767,356.991669 
	C280.135468,359.641846 278.041168,362.292023 275.259064,365.193268 
	C270.268341,372.054565 270.957367,379.949005 270.963318,387.797211 
	C271.016937,458.596893 270.993439,529.396667 270.994110,600.196411 
	C270.994354,625.689880 270.862671,651.184570 271.092804,676.675964 
	C271.153809,683.433655 272.457153,690.134583 277.975647,695.002563 
	C277.975647,695.002563 277.899445,695.021301 278.049225,695.558777 
	C278.360626,695.738831 278.672028,695.918945 278.987366,696.024780 
	C278.987366,696.024780 278.914154,696.037537 278.989960,696.747375 
	C279.648163,697.193909 280.306335,697.640442 280.975006,698.013000 
	C280.975006,698.013000 280.900330,698.014465 281.046600,698.554565 
	C281.357819,698.736023 281.669037,698.917419 281.990814,699.024231 
	C281.990814,699.024231 281.920868,699.052307 282.152771,699.698547 
	C283.149078,700.133850 284.145386,700.569153 285.365204,701.138550 
	C285.365204,701.138550 285.548096,700.952820 286.026306,701.383057 
	C286.362976,701.620728 286.699646,701.858337 287.023315,701.980774 
z"/>
<path fill="#17314F" opacity="1.000000" stroke="none" 
	d="
M285.548096,700.952820 
	C285.548096,700.952820 285.365204,701.138550 285.239258,700.676331 
	C284.049133,699.826843 282.985016,699.439575 281.920868,699.052307 
	C281.920868,699.052307 281.990814,699.024231 282.199585,698.649292 
	C281.905670,698.187744 281.403015,698.101074 280.900330,698.014465 
	C280.900330,698.014465 280.975006,698.013000 281.252869,697.694336 
	C280.658508,696.929688 279.786346,696.483582 278.914154,696.037537 
	C278.914154,696.037537 278.987366,696.024780 279.189636,695.640625 
	C278.894409,695.178040 278.396912,695.099670 277.899445,695.021301 
	C277.899445,695.021301 277.975647,695.002563 278.317688,694.798584 
	C276.640015,689.232056 273.042786,683.916809 272.880066,678.498474 
	C272.254089,657.653625 272.727753,636.775757 273.119110,616.187927 
	C273.446899,625.848083 273.446899,635.230408 273.446899,644.116272 
	C275.758301,645.218994 277.440796,646.021667 279.053223,646.790894 
	C278.357941,648.813110 277.887421,650.181580 277.416901,651.550049 
	C277.778503,651.733765 278.140137,651.917419 278.501740,652.101135 
	C279.071655,651.310364 280.013824,650.575989 280.143707,649.718567 
	C280.585815,646.799805 280.764893,643.839539 281.000275,640.891602 
	C281.278168,637.411316 282.233917,634.610718 286.685730,635.444153 
	C286.793823,637.852112 286.793823,639.808167 286.793823,642.241760 
	C288.995422,642.241760 290.781921,642.241882 292.568390,642.241760 
	C430.287567,642.230042 568.006775,642.221985 705.725952,642.199951 
	C716.878540,642.198181 728.031189,642.100769 739.532104,642.015869 
	C741.072021,641.109985 742.263489,640.235962 742.651367,639.951416 
	C745.300232,641.002441 747.340515,641.812012 749.067688,642.497314 
	C750.280579,644.257874 751.564697,646.121948 752.920776,648.450562 
	C753.065308,658.966553 753.138000,669.017883 753.122253,679.453735 
	C751.708618,684.248718 750.383362,688.659180 749.058105,693.069702 
	C749.058105,693.069702 749.012207,693.004761 748.670532,692.793030 
	C747.907654,693.743347 747.486389,694.905334 747.065125,696.067383 
	C747.065125,696.067383 747.000000,696.002441 746.700684,695.692139 
	C745.950195,696.280701 745.499023,697.179688 745.047852,698.078613 
	C745.047852,698.078613 745.004639,698.004150 744.773499,697.711914 
	C744.033081,697.979370 743.523865,698.539001 743.014648,699.098694 
	C741.873718,700.005066 740.732727,700.911499 738.932983,701.934937 
	C738.188782,702.400635 738.103394,702.749390 738.018005,703.098083 
	C738.018005,703.098083 738.011719,703.023865 737.729614,702.697510 
	C736.963074,702.949097 736.478577,703.527100 735.994019,704.105042 
	C735.994019,704.105042 736.003845,704.031067 735.775146,703.672485 
	C734.686279,703.911072 733.826233,704.508301 732.966125,705.105469 
	C732.966125,705.105469 732.990906,705.006592 732.680054,704.723511 
	C728.411743,704.854736 724.454529,705.625610 720.496582,705.629700 
	C667.916809,705.683899 615.337036,705.628601 562.757202,705.615173 
	C561.477905,705.614868 560.198608,705.782715 558.404846,705.908020 
	C559.278992,709.793640 560.068481,713.302979 560.857971,716.812317 
	C561.564636,720.243896 562.271362,723.675476 563.140076,727.947266 
	C573.540588,728.805298 583.778992,728.823120 594.436951,728.987061 
	C595.592224,729.066528 596.328003,728.999939 597.063782,728.933350 
	C597.063782,728.933350 597.002441,728.998230 596.747437,729.266357 
	C601.291565,733.182129 599.788330,737.613770 598.052307,742.074402 
	C598.052307,742.074402 598.000000,742.000000 597.833984,741.706665 
	C596.551636,741.880493 595.435425,742.347595 594.319153,742.814636 
	C592.265320,743.264648 590.214478,744.087280 588.157104,744.104309 
	C574.612061,744.216187 561.064331,744.264832 547.520142,744.104736 
	C540.244934,744.018738 532.977600,743.275208 525.702332,743.185059 
	C512.493591,743.021423 499.281525,743.124146 485.145264,742.953796 
	C466.336334,742.848511 448.453064,742.905029 430.569763,742.961609 
	C430.569763,742.961609 430.383484,743.145264 430.278900,742.710632 
	C424.626495,737.935303 424.595062,734.945740 430.033844,728.910706 
	C430.033844,728.910706 430.016296,729.017883 430.430237,729.100647 
	C441.398895,729.183411 451.953613,729.183411 463.000519,729.183411 
	C463.370667,725.811584 463.687988,722.921143 464.005310,720.030701 
	C464.670074,715.927185 465.334869,711.823669 466.037567,707.019165 
	C463.884460,706.074524 461.693848,705.622009 459.502350,705.617737 
	C411.514923,705.524048 363.527313,705.499084 315.539856,705.409851 
	C306.427612,705.392883 297.151459,706.589172 288.499725,702.345215 
	C288.441406,702.316650 288.125763,702.812500 287.930298,703.063477 
	C287.930298,703.063477 287.996887,703.017822 288.177368,702.694275 
	C287.874359,702.242004 287.390869,702.113220 286.907379,701.984436 
	C286.907379,701.984436 287.023315,701.980774 286.982788,701.677734 
	C286.477570,701.234009 286.012848,701.093384 285.548096,700.952820 
M480.995941,711.989502 
	C480.995941,711.989502 481.089264,711.956116 480.311249,712.169983 
	C479.254059,717.441345 478.196899,722.712769 477.428253,728.800354 
	C500.928131,728.800354 524.427979,728.800354 548.700439,728.800354 
	C547.047546,721.809998 545.518738,715.344299 543.879944,708.630066 
	C543.879944,708.630066 544.040466,708.410767 544.289673,707.464172 
	C543.135071,706.901489 541.983582,705.855957 540.825256,705.848206 
	C522.105225,705.724121 503.384064,705.692627 484.664185,705.806519 
	C483.530945,705.813416 482.406128,707.213623 480.973694,708.776855 
	C480.990021,709.879578 481.006348,710.982239 480.995941,711.989502 
M573.500122,656.329346 
	C478.074799,656.329346 382.649506,656.329346 287.049042,656.329346 
	C287.049042,664.196472 286.587341,671.687744 287.200684,679.089905 
	C287.659943,684.632324 291.523987,688.508057 296.815979,690.152161 
	C299.912964,691.114319 303.349335,691.297668 306.633270,691.299377 
	C442.262573,691.370239 577.891907,691.381775 713.521240,691.393066 
	C717.351807,691.393372 721.200317,691.531189 725.008911,691.219238 
	C731.597778,690.679688 737.872986,686.023132 738.533203,679.804199 
	C739.345215,672.154846 738.727051,664.353638 738.727051,656.328308 
	C683.791931,656.328308 629.146057,656.328308 573.500122,656.329346 
z"/>
<path fill="#F2F2F0" opacity="1.000000" stroke="none" 
	d="
M291.934143,351.922668 
	C294.332825,351.277527 296.731201,350.069275 299.130280,350.067780 
	C441.603638,349.979095 584.077087,349.984131 726.550476,350.040924 
	C728.937439,350.041870 731.324219,350.787018 733.749023,351.754211 
	C733.787048,352.323517 733.512512,352.723846 733.109131,352.664490 
	C724.144226,352.169373 715.582703,351.733582 706.559814,351.203247 
	C696.723694,351.169678 687.348755,351.230652 677.512573,351.215637 
	C581.516052,351.131622 485.980804,351.114136 390.445587,351.124512 
	C373.972504,351.126312 357.499451,351.246368 340.565002,351.215393 
	C333.059601,351.184631 326.015533,351.250214 318.510773,351.238068 
	C309.524536,351.668335 300.999054,352.176361 292.339233,352.493591 
	C292.204895,352.302795 291.934143,351.922668 291.934143,351.922668 
z"/>
<path fill="#FBFBFB" opacity="1.000000" stroke="none" 
	d="
M272.791321,615.910156 
	C272.727753,636.775757 272.254089,657.653625 272.880066,678.498474 
	C273.042786,683.916809 276.640015,689.232056 278.298737,694.832947 
	C272.457153,690.134583 271.153809,683.433655 271.092804,676.675964 
	C270.862671,651.184570 270.994354,625.689880 270.994110,600.196411 
	C270.993439,529.396667 271.016937,458.596893 270.963318,387.797211 
	C270.957367,379.949005 270.268341,372.054565 275.620331,365.083649 
	C275.981598,364.974030 275.939117,364.960968 276.260071,365.263794 
	C275.367981,369.371674 274.154938,373.176727 272.764740,377.342896 
	C272.636505,380.811859 272.685425,383.919708 272.608276,387.477020 
	C272.562256,400.608490 272.642303,413.290436 272.576202,426.362152 
	C272.524567,427.843750 272.619110,428.935638 272.584106,430.384338 
	C272.538910,431.484985 272.623230,432.228790 272.561035,433.362122 
	C272.507446,434.843689 272.600372,435.935730 272.563782,437.384277 
	C272.514343,438.484894 272.594391,439.228943 272.528748,440.421875 
	C272.498901,446.589600 272.614716,452.308502 272.601990,458.447021 
	C272.559814,460.901794 272.646149,462.936890 272.586060,465.340027 
	C272.533051,466.481567 272.626526,467.255127 272.587494,468.463806 
	C272.538788,471.923462 272.622589,474.947937 272.560211,478.420074 
	C272.508759,483.920868 272.603455,488.974030 272.567749,494.475922 
	C272.524445,510.607361 272.611542,526.290039 272.554993,542.363220 
	C272.509583,543.844971 272.607849,544.936157 272.575623,546.475952 
	C272.530212,553.274048 272.615295,559.623596 272.560547,566.306519 
	C272.515900,567.102356 272.611145,567.564941 272.576416,568.453735 
	C272.537781,571.244080 272.629059,573.608215 272.573547,576.421265 
	C272.545837,586.607788 272.664948,596.345398 272.666260,606.428711 
	C272.626740,607.491394 272.705017,608.208435 272.640686,609.197388 
	C272.594482,610.673096 272.690918,611.876892 272.670776,613.425049 
	C272.633240,614.482971 272.712280,615.196533 272.791321,615.910156 
z"/>
<path fill="#F2F2F0" opacity="1.000000" stroke="none" 
	d="
M288.070557,703.410889 
	C288.125763,702.812500 288.441406,702.316650 288.499725,702.345215 
	C297.151459,706.589172 306.427612,705.392883 315.539856,705.409851 
	C363.527313,705.499084 411.514923,705.524048 459.502350,705.617737 
	C461.693848,705.622009 463.884460,706.074524 466.035339,706.566162 
	C465.148499,706.504333 464.271454,705.873108 463.461273,705.949646 
	C461.617188,706.123901 459.806335,706.975647 457.981293,706.977783 
	C406.553833,707.037598 355.125916,707.118713 303.699463,706.883179 
	C298.531921,706.859497 293.373474,704.847534 288.070557,703.410889 
z"/>
<path fill="#B0B5BE" opacity="1.000000" stroke="none" 
	d="
M753.210632,679.069214 
	C753.138000,669.017883 753.065308,658.966553 752.982727,647.986450 
	C752.982361,607.944397 752.976074,568.831055 753.005432,529.717712 
	C753.043457,479.124268 753.110046,428.530823 753.329773,377.937500 
	C753.495239,377.937653 753.826050,377.946533 753.826050,377.946533 
	C753.885315,421.896027 753.976929,465.845490 753.995850,509.794983 
	C754.020020,565.904053 753.985413,622.013062 753.741821,678.604126 
	C753.507446,679.086060 753.210632,679.069214 753.210632,679.069214 
z"/>
<path fill="#FBFBFB" opacity="1.000000" stroke="none" 
	d="
M560.850281,716.375427 
	C560.068481,713.302979 559.278992,709.793640 558.404846,705.908020 
	C560.198608,705.782715 561.477905,705.614868 562.757202,705.615173 
	C615.337036,705.628601 667.916809,705.683899 720.496582,705.629700 
	C724.454529,705.625610 728.411743,704.854736 732.729370,704.736389 
	C730.369202,705.690796 727.650208,706.917603 724.928528,706.923401 
	C671.857117,707.036621 618.785400,707.007507 565.713745,707.007507 
	C563.902771,707.007507 562.091797,707.007507 560.842590,707.007507 
	C560.842590,710.213684 560.842590,713.076111 560.850281,716.375427 
z"/>
<path fill="#FEFEFE" opacity="1.000000" stroke="none" 
	d="
M430.860962,743.316895 
	C448.453064,742.905029 466.336334,742.848511 484.690674,742.886597 
	C484.665802,743.317261 484.168976,743.948059 483.674072,743.946533 
	C466.166656,743.891846 448.659393,743.777832 430.860962,743.316895 
z"/>
<path fill="#E6EAE9" opacity="1.000000" stroke="none" 
	d="
M463.613770,720.112366 
	C463.687988,722.921143 463.370667,725.811584 463.000519,729.183411 
	C451.953613,729.183411 441.398895,729.183411 430.376160,729.095581 
	C431.382721,728.673706 432.853607,728.071350 434.332611,728.050903 
	C441.638458,727.949646 448.954590,727.795715 456.250610,728.081238 
	C460.367950,728.242432 462.665466,727.377686 462.032928,722.701355 
	C461.929047,721.933289 462.801208,721.033142 463.613770,720.112366 
z"/>
<path fill="#D2D9D9" opacity="1.000000" stroke="none" 
	d="
M594.017456,728.840942 
	C583.778992,728.823120 573.540588,728.805298 563.148132,728.373169 
	C573.024536,727.983032 583.054932,728.007141 593.551758,728.269653 
	C594.018250,728.508057 594.017456,728.840942 594.017456,728.840942 
z"/>
<path fill="#E6EAE9" opacity="1.000000" stroke="none" 
	d="
M429.629700,728.954224 
	C424.595062,734.945740 424.626495,737.935303 430.163940,742.648315 
	C427.020935,743.258972 424.704987,742.008423 425.064697,738.703369 
	C425.449158,735.170776 422.512115,729.900208 429.629700,728.954224 
z"/>
<path fill="#F2F2F0" opacity="1.000000" stroke="none" 
	d="
M753.892822,377.524597 
	C753.826050,377.946533 753.495239,377.937653 753.252380,377.556335 
	C751.629944,373.454651 750.250305,369.734283 748.839233,365.706879 
	C748.280334,364.522522 747.752930,363.645233 747.444458,362.550934 
	C747.809631,362.189392 747.955750,362.044861 748.101929,361.900330 
	C751.895142,366.258575 754.367981,371.125549 753.892822,377.524597 
z"/>
<path fill="#E6EAE9" opacity="1.000000" stroke="none" 
	d="
M753.122253,679.453735 
	C753.210632,679.069214 753.507446,679.086060 753.655090,679.068848 
	C755.197632,684.458740 752.661926,688.709839 749.401611,692.959290 
	C750.383362,688.659180 751.708618,684.248718 753.122253,679.453735 
z"/>
<path fill="#E6EAE9" opacity="1.000000" stroke="none" 
	d="
M598.457031,742.054443 
	C599.788330,737.613770 601.291565,733.182129 596.771484,729.228760 
	C601.921265,731.191467 602.724670,737.007263 598.457031,742.054443 
z"/>
<path fill="#FBFBFB" opacity="1.000000" stroke="none" 
	d="
M275.964233,364.958130 
	C278.041168,362.292023 280.135468,359.641846 282.772095,357.122986 
	C283.314392,357.254303 283.693604,357.561584 283.477051,357.811584 
	C280.820038,360.361359 278.379578,362.661163 275.939117,364.960968 
	C275.939117,364.960968 275.981598,364.974030 275.964233,364.958130 
z"/>
<path fill="#F2F2F0" opacity="1.000000" stroke="none" 
	d="
M733.925415,352.124146 
	C736.647461,353.028534 739.231140,354.132294 741.753906,355.813965 
	C741.559875,356.561371 741.426697,356.730957 740.984741,356.774536 
	C739.111694,355.814392 737.547363,354.980316 735.763062,353.961578 
	C734.866211,353.425903 734.189331,353.074860 733.512512,352.723816 
	C733.512512,352.723846 733.787048,352.323517 733.925415,352.124146 
z"/>
<path fill="#F2F2F0" opacity="1.000000" stroke="none" 
	d="
M744.084412,357.918701 
	C745.399109,359.013000 746.713867,360.107300 748.065247,361.550964 
	C747.955750,362.044861 747.809631,362.189392 747.203796,362.340454 
	C745.595947,361.088593 744.447815,359.830231 743.497314,358.410339 
	C743.824829,358.138794 743.954651,358.028748 744.084412,357.918701 
z"/>
<path fill="#F2F2F0" opacity="1.000000" stroke="none" 
	d="
M286.896271,353.900024 
	C288.332367,353.258911 289.768494,352.617798 291.569366,351.949677 
	C291.934143,351.922668 292.204895,352.302795 292.064880,352.664246 
	C290.546631,353.619568 289.168396,354.213440 287.567444,354.579712 
	C287.195251,354.201416 287.045776,354.050720 286.896271,353.900024 
z"/>
<path fill="#E6EAE9" opacity="1.000000" stroke="none" 
	d="
M747.386108,695.974609 
	C747.486389,694.905334 747.907654,693.743347 748.708008,692.806396 
	C748.627075,693.981628 748.167053,694.931702 747.386108,695.974609 
z"/>
<path fill="#FBFBFB" opacity="1.000000" stroke="none" 
	d="
M282.036804,699.375427 
	C282.985016,699.439575 284.049133,699.826843 285.127472,700.609253 
	C284.145386,700.569153 283.149078,700.133850 282.036804,699.375427 
z"/>
<path fill="#E6EAE9" opacity="1.000000" stroke="none" 
	d="
M594.677246,742.818726 
	C595.435425,742.347595 596.551636,741.880493 597.863953,741.740967 
	C597.051819,742.319946 596.043579,742.571411 594.677246,742.818726 
z"/>
<path fill="#E6EAE9" opacity="1.000000" stroke="none" 
	d="
M745.407349,698.061279 
	C745.499023,697.179688 745.950195,696.280701 746.737549,695.719299 
	C746.638123,696.719238 746.202515,697.381653 745.407349,698.061279 
z"/>
<path fill="#FBFBFB" opacity="1.000000" stroke="none" 
	d="
M278.952057,696.392456 
	C279.786346,696.483582 280.658508,696.929688 281.247620,697.731323 
	C280.306335,697.640442 279.648163,697.193909 278.952057,696.392456 
z"/>
<path fill="#E6EAE9" opacity="1.000000" stroke="none" 
	d="
M594.436951,728.987061 
	C594.017456,728.840942 594.018250,728.508057 594.016418,728.341675 
	C594.951538,728.202026 595.888489,728.228882 596.944580,728.594482 
	C596.328003,728.999939 595.592224,729.066528 594.436951,728.987061 
z"/>
<path fill="#FBFBFB" opacity="1.000000" stroke="none" 
	d="
M733.324097,705.046631 
	C733.826233,704.508301 734.686279,703.911072 735.810181,703.685059 
	C735.276672,704.366821 734.479370,704.677307 733.324097,705.046631 
z"/>
<path fill="#E6EAE9" opacity="1.000000" stroke="none" 
	d="
M743.337036,699.045532 
	C743.523865,698.539001 744.033081,697.979370 744.806396,697.739685 
	C744.600098,698.370544 744.129761,698.681458 743.337036,699.045532 
z"/>
<path fill="#FBFBFB" opacity="1.000000" stroke="none" 
	d="
M736.316956,704.053223 
	C736.478577,703.527100 736.963074,702.949097 737.765015,702.709106 
	C737.601562,703.365234 737.120728,703.683350 736.316956,704.053223 
z"/>
<path fill="#FBFBFB" opacity="1.000000" stroke="none" 
	d="
M283.923279,355.921661 
	C284.394653,355.610321 284.865997,355.298981 285.663025,355.184113 
	C285.988647,355.380585 285.991394,355.853729 285.804565,356.059326 
	C285.296875,356.439362 284.975983,356.613800 284.473816,356.570190 
	C284.169495,356.208649 284.046387,356.065155 283.923279,355.921661 
z"/>
<path fill="#F2F2F0" opacity="1.000000" stroke="none" 
	d="
M285.991394,355.853729 
	C285.991394,355.853729 285.988647,355.380585 285.979675,355.143646 
	C286.117432,354.619904 286.264191,354.333130 286.653625,353.973175 
	C287.045776,354.050720 287.195251,354.201416 287.370605,354.763519 
	C286.928070,355.401184 286.459747,355.627441 285.991394,355.853729 
z"/>
<path fill="#FBFBFB" opacity="1.000000" stroke="none" 
	d="
M283.126709,357.098389 
	C283.099396,356.648254 283.259796,356.354034 283.671753,355.990753 
	C284.046387,356.065155 284.169495,356.208649 284.345886,356.735657 
	C284.193237,357.313385 283.958038,357.460846 283.693604,357.561584 
	C283.693604,357.561584 283.314392,357.254303 283.126709,357.098389 
z"/>
<path fill="#F2F2F0" opacity="1.000000" stroke="none" 
	d="
M741.897644,356.141418 
	C742.385925,356.065033 742.669556,356.239044 742.827454,356.862640 
	C742.571960,357.447815 742.442200,357.583374 742.119080,357.613953 
	C741.682312,357.340149 741.471619,357.137360 741.293579,356.900574 
	C741.426697,356.730957 741.559875,356.561371 741.897644,356.141418 
z"/>
<path fill="#FBFBFB" opacity="1.000000" stroke="none" 
	d="
M738.281372,703.028809 
	C738.103394,702.749390 738.188782,702.400635 738.629395,702.043579 
	C738.838013,702.343323 738.691345,702.651428 738.281372,703.028809 
z"/>
<path fill="#F2F2F0" opacity="1.000000" stroke="none" 
	d="
M286.966064,702.264038 
	C287.390869,702.113220 287.874359,702.242004 288.165833,702.732971 
	C287.657440,702.911377 287.341064,702.727539 286.966064,702.264038 
z"/>
<path fill="#F2F2F0" opacity="1.000000" stroke="none" 
	d="
M285.787201,701.167969 
	C286.012848,701.093384 286.477570,701.234009 286.989319,701.735352 
	C286.699646,701.858337 286.362976,701.620728 285.787201,701.167969 
z"/>
<path fill="#FBFBFB" opacity="1.000000" stroke="none" 
	d="
M280.973450,698.284546 
	C281.403015,698.101074 281.905670,698.187744 282.194336,698.686646 
	C281.669037,698.917419 281.357819,698.736023 280.973450,698.284546 
z"/>
<path fill="#FBFBFB" opacity="1.000000" stroke="none" 
	d="
M277.974335,695.290039 
	C278.396912,695.099670 278.894409,695.178040 279.187653,695.677734 
	C278.672028,695.918945 278.360626,695.738831 277.974335,695.290039 
z"/>
<path fill="#F2F2F0" opacity="1.000000" stroke="none" 
	d="
M742.897400,357.109863 
	C743.380676,357.077667 743.668213,357.247833 744.020142,357.668335 
	C743.954651,358.028748 743.824829,358.138794 743.310486,358.295135 
	C742.678833,358.175995 742.474304,357.968506 742.312439,357.718964 
	C742.442200,357.583374 742.571960,357.447815 742.897400,357.109863 
z"/>
<path fill="#FEFEFE" opacity="1.000000" stroke="none" 
	d="
M739.183777,642.047791 
	C728.031189,642.100769 716.878540,642.198181 705.725952,642.199951 
	C568.006775,642.221985 430.287567,642.230042 292.568390,642.241760 
	C290.781921,642.241882 288.995422,642.241760 286.793823,642.241760 
	C286.793823,639.808167 286.793823,637.852112 286.777222,634.983948 
	C286.726349,551.078674 286.655151,468.085419 286.761902,385.092377 
	C286.767487,380.737701 288.283997,376.385010 289.393250,371.877655 
	C292.811554,369.555634 295.933746,367.387360 299.521362,365.231689 
	C310.185822,365.121552 320.384796,364.998779 330.948547,364.964478 
	C337.620636,364.987823 343.927948,364.922729 350.727692,364.938782 
	C386.141815,364.957153 421.063446,364.894348 456.380127,364.934631 
	C457.854706,364.969696 458.934265,364.901703 460.405701,364.918030 
	C461.860321,364.946045 462.923096,364.889740 464.318970,364.934937 
	C465.106354,364.968353 465.560547,364.900299 466.475830,364.916016 
	C531.515747,364.998901 596.094543,365.001099 660.673401,364.989563 
	C664.663513,364.988861 668.653687,364.880157 672.988037,364.919739 
	C681.558899,364.965485 689.785522,364.913177 698.473145,364.946289 
	C707.625366,365.009552 716.316528,364.987335 725.320190,365.133911 
	C731.138672,366.283234 735.048584,369.486877 737.973633,374.539398 
	C738.408447,377.562683 739.132324,380.174927 739.134094,382.787689 
	C739.193298,469.207703 739.183472,555.627747 739.183777,642.047791 
M344.819977,463.236511 
	C344.512360,467.126251 345.396271,469.814362 349.932159,470.879059 
	C364.592712,474.320435 373.708984,486.055298 373.625824,500.780212 
	C373.543671,515.322998 364.120300,527.228394 349.657166,530.572266 
	C346.014160,531.414551 344.639893,533.148621 344.690857,536.725037 
	C344.804779,544.721558 344.986145,552.730896 344.654236,560.714905 
	C344.441101,565.842651 346.286774,568.244141 351.381165,569.254761 
	C359.731934,570.911316 364.412689,576.625854 365.064728,584.840698 
	C365.518738,590.560486 367.098602,592.125366 372.834045,592.165833 
	C381.664825,592.228271 390.496429,592.180115 399.327667,592.180969 
	C460.146667,592.186829 520.965698,592.181702 581.784668,592.226196 
	C585.693115,592.229065 589.114868,592.010376 590.165955,587.199341 
	C591.226013,582.347473 594.477417,579.726013 599.434570,579.737000 
	C604.300415,579.747803 607.713562,582.193726 608.970520,586.976685 
	C610.002808,590.904724 612.407654,592.190613 616.288269,592.149841 
	C628.783936,592.018494 641.282043,592.135193 653.778687,592.070435 
	C659.178284,592.042480 660.705933,590.508911 661.312805,585.000305 
	C662.354553,575.543823 666.251038,570.953430 675.524231,568.853149 
	C679.572266,567.936218 681.533875,565.952332 681.447388,561.661072 
	C681.286316,553.666321 681.253052,545.662048 681.462585,537.669495 
	C681.579590,533.207581 679.814880,531.164490 675.419189,530.151001 
	C661.240906,526.881531 652.603271,515.163574 652.782104,500.082275 
	C652.957520,485.291901 661.778992,473.924866 675.827454,470.840912 
	C679.845276,469.958893 681.361694,467.984680 681.273743,463.963257 
	C681.095276,455.802460 681.117554,447.633270 681.259399,439.471069 
	C681.336060,435.058075 679.550110,432.828857 675.111206,431.975464 
	C666.591431,430.337524 662.046631,425.359955 661.262329,416.630798 
	C660.804199,411.532257 658.409973,409.664459 653.541748,409.718384 
	C641.379272,409.853149 629.212891,409.923401 617.051758,409.755890 
	C612.675110,409.695648 609.922180,410.781036 608.509033,415.404846 
	C607.273865,419.446594 603.503052,421.753448 599.482605,420.906830 
	C596.448181,420.267853 592.253174,418.202881 591.360291,415.756104 
	C589.423950,410.449921 586.210510,409.700836 581.422852,409.708710 
	C517.104858,409.814514 452.786591,409.804993 388.468414,409.819550 
	C382.636475,409.820862 376.804535,409.796814 370.972626,409.774384 
	C367.382782,409.760590 365.487518,411.506958 365.017914,415.093689 
	C363.588745,426.009338 360.505341,429.588898 350.028717,432.144135 
	C346.334595,433.045197 344.735931,435.011322 344.794464,438.804688 
	C344.915314,446.634247 344.822876,454.467041 344.819977,463.236511 
z"/>
<path fill="#FBFBFB" opacity="1.000000" stroke="none" 
	d="
M574.000122,656.328857 
	C629.146057,656.328308 683.791931,656.328308 738.727051,656.328308 
	C738.727051,664.353638 739.345215,672.154846 738.533203,679.804199 
	C737.872986,686.023132 731.597778,690.679688 725.008911,691.219238 
	C721.200317,691.531189 717.351807,691.393372 713.521240,691.393066 
	C577.891907,691.381775 442.262573,691.370239 306.633270,691.299377 
	C303.349335,691.297668 299.912964,691.114319 296.815979,690.152161 
	C291.523987,688.508057 287.659943,684.632324 287.200684,679.089905 
	C286.587341,671.687744 287.049042,664.196472 287.049042,656.329346 
	C382.649506,656.329346 478.074799,656.329346 574.000122,656.328857 
M508.954468,679.703918 
	C512.207581,681.737244 515.790405,681.856018 517.849182,678.702759 
	C519.223755,676.597473 519.801270,672.812622 518.809998,670.670471 
	C517.939453,668.789307 514.359558,667.098877 512.029785,667.166443 
	C506.318451,667.332031 504.542480,673.706299 508.954468,679.703918 
z"/>
<path fill="#102644" opacity="1.000000" stroke="none" 
	d="
M289.097137,372.031372 
	C288.283997,376.385010 286.767487,380.737701 286.761902,385.092377 
	C286.655151,468.085419 286.726349,551.078674 286.669128,634.532104 
	C282.233917,634.610718 281.278168,637.411316 281.000275,640.891602 
	C280.764893,643.839539 280.585815,646.799805 280.143707,649.718567 
	C280.013824,650.575989 279.071655,651.310364 278.501740,652.101135 
	C278.140137,651.917419 277.778503,651.733765 277.416901,651.550049 
	C277.887421,650.181580 278.357941,648.813110 279.053223,646.790894 
	C277.440796,646.021667 275.758301,645.218994 273.446899,644.116272 
	C273.446899,635.230408 273.446899,625.848083 273.119110,616.187927 
	C272.712280,615.196533 272.633240,614.482971 272.966797,613.217773 
	C273.180695,611.419312 272.981995,610.172363 272.783325,608.925476 
	C272.705017,608.208435 272.626740,607.491394 272.996216,606.153564 
	C273.600281,596.164551 273.774567,586.796631 273.861084,577.427795 
	C273.865509,576.946167 273.117828,576.457642 272.720337,575.972290 
	C272.629059,573.608215 272.537781,571.244080 272.793152,568.382446 
	C272.993378,567.247681 272.846893,566.610413 272.700378,565.973206 
	C272.615295,559.623596 272.530212,553.274048 272.839691,546.358765 
	C273.055695,544.519653 272.877167,543.246216 272.698639,541.972717 
	C272.611542,526.290039 272.524445,510.607361 272.889038,494.292175 
	C273.129272,488.430573 272.917847,483.201508 272.706421,477.972412 
	C272.622589,474.947937 272.538788,471.923462 272.835876,468.367737 
	C273.055328,466.881653 272.893921,465.926819 272.732513,464.972015 
	C272.646149,462.936890 272.559814,460.901794 272.918823,458.257263 
	C273.134277,451.756226 272.904358,445.864624 272.674438,439.973022 
	C272.594391,439.228943 272.514343,438.484894 272.828918,437.268951 
	C273.051544,435.522278 272.879547,434.247437 272.707550,432.972626 
	C272.623230,432.228790 272.538910,431.484985 272.846497,430.266632 
	C273.066376,428.518890 272.894348,427.245636 272.722351,425.972412 
	C272.642303,413.290436 272.562256,400.608490 272.917114,387.294098 
	C273.215302,383.435028 273.078613,380.208405 272.941895,376.981750 
	C274.154938,373.176727 275.367981,369.371674 276.260071,365.263794 
	C278.379578,362.661163 280.820038,360.361359 283.477051,357.811584 
	C283.958038,357.460846 284.193237,357.313385 284.527130,356.953735 
	C284.975983,356.613800 285.296875,356.439362 285.804565,356.059326 
	C286.459747,355.627441 286.928070,355.401184 287.593262,354.991089 
	C289.168396,354.213440 290.546631,353.619568 292.199219,352.855042 
	C300.999054,352.176361 309.524536,351.668335 318.513306,351.616272 
	C320.069275,353.901184 320.877960,356.003571 322.317291,357.498932 
	C324.871063,360.152130 327.807465,362.437012 330.583771,364.876007 
	C320.384796,364.998779 310.185822,365.121552 299.502319,364.832336 
	C297.978729,359.691589 295.897919,358.848328 292.617828,361.942200 
	C291.076080,363.396393 289.983093,365.394531 288.302826,366.619476 
	C284.827911,369.152710 285.831055,370.670471 289.097137,372.031372 
z"/>
<path fill="#0F2645" opacity="1.000000" stroke="none" 
	d="
M739.532104,642.015869 
	C739.183472,555.627747 739.193298,469.207703 739.134094,382.787689 
	C739.132324,380.174927 738.408447,377.562683 738.200562,374.255005 
	C740.259644,372.207550 742.139343,370.855194 744.019165,369.502991 
	C745.636230,368.339844 747.253540,367.176941 748.870728,366.013947 
	C750.250305,369.734283 751.629944,373.454651 753.086914,377.556183 
	C753.110046,428.530823 753.043457,479.124268 753.005432,529.717712 
	C752.976074,568.831055 752.982361,607.944397 752.910828,647.521851 
	C751.564697,646.121948 750.280579,644.257874 749.067688,642.497314 
	C747.340515,641.812012 745.300232,641.002441 742.651367,639.951416 
	C742.263489,640.235962 741.072021,641.109985 739.532104,642.015869 
z"/>
<path fill="#000000" opacity="1.000000" stroke="none" 
	d="
M544.040466,708.410767 
	C544.040466,708.410767 543.879944,708.630066 543.947388,709.208130 
	C544.787476,715.779358 545.560120,721.772522 546.358032,727.961487 
	C524.043396,727.961487 501.582458,727.961487 479.086243,727.540527 
	C479.730347,722.065125 480.409821,717.010620 481.089264,711.956116 
	C481.089264,711.956116 480.995941,711.989502 481.369324,711.905396 
	C481.850525,710.557129 481.958313,709.292847 482.456726,707.862732 
	C483.592957,707.465515 484.338226,707.033875 485.084381,707.032288 
	C503.402649,706.994446 521.721130,706.972900 540.039062,707.062622 
	C541.375000,707.069153 542.706787,707.941162 544.040466,708.410767 
z"/>
<path fill="#D2D9D9" opacity="1.000000" stroke="none" 
	d="
M479.121552,727.961487 
	C501.582458,727.961487 524.043396,727.961487 546.358032,727.961487 
	C545.560120,721.772522 544.787476,715.779358 544.002380,709.332397 
	C545.518738,715.344299 547.047546,721.809998 548.700439,728.800354 
	C524.427979,728.800354 500.928131,728.800354 477.614349,728.406006 
	C478.240814,727.994934 478.681183,727.978210 479.121552,727.961487 
z"/>
<path fill="#FEFEFE" opacity="1.000000" stroke="none" 
	d="
M544.165039,707.937500 
	C542.706787,707.941162 541.375000,707.069153 540.039062,707.062622 
	C521.721130,706.972900 503.402649,706.994446 485.084381,707.032288 
	C484.338226,707.033875 483.592957,707.465515 482.261963,707.816284 
	C481.676666,707.935730 481.277405,707.965454 481.277405,707.965454 
	C482.406128,707.213623 483.530945,705.813416 484.664185,705.806519 
	C503.384064,705.692627 522.105225,705.724121 540.825256,705.848206 
	C541.983582,705.855957 543.135071,706.901489 544.165039,707.937500 
z"/>
<path fill="#E6EAE9" opacity="1.000000" stroke="none" 
	d="
M479.086243,727.540527 
	C478.681183,727.978210 478.240814,727.994934 477.470093,727.997864 
	C478.196899,722.712769 479.254059,717.441345 480.700256,712.063049 
	C480.409821,717.010620 479.730347,722.065125 479.086243,727.540527 
z"/>
<path fill="#E6EAE9" opacity="1.000000" stroke="none" 
	d="
M481.125549,708.371155 
	C481.277405,707.965454 481.676666,707.935730 481.871399,707.982178 
	C481.958313,709.292847 481.850525,710.557129 481.382690,711.953125 
	C481.006348,710.982239 480.990021,709.879578 481.125549,708.371155 
z"/>
<path fill="#102644" opacity="1.000000" stroke="none" 
	d="
M672.643799,364.821716 
	C668.653687,364.880157 664.663513,364.988861 660.673401,364.989563 
	C596.094543,365.001099 531.515747,364.998901 466.485535,364.555603 
	C467.543243,362.662109 469.052277,361.212860 470.580231,359.745392 
	C460.270111,352.814301 448.521484,353.229828 442.591095,361.992004 
	C446.324371,361.992004 449.157990,362.002838 451.991486,361.988312 
	C454.016602,361.977936 456.204041,361.704895 455.985107,364.831543 
	C421.063446,364.894348 386.141815,364.957153 350.944519,364.557800 
	C351.966400,363.490662 353.245300,362.840851 354.566437,362.292847 
	C355.977142,361.707733 357.427704,361.218750 358.860840,360.687836 
	C354.111633,358.286377 349.529968,357.409790 345.228607,355.789215 
	C343.509552,355.141602 342.408661,352.853271 341.026367,351.311798 
	C357.499451,351.246368 373.972504,351.126312 390.445587,351.124512 
	C485.980804,351.114136 581.516052,351.131622 677.514709,351.586304 
	C678.444214,358.216095 671.754639,356.709503 669.378723,359.518524 
	C670.612854,361.523071 671.628296,363.172394 672.643799,364.821716 
M398.415466,357.005981 
	C391.384369,352.554749 385.714539,359.019958 378.004974,358.426666 
	C383.276001,362.400360 396.961121,362.938629 403.173492,358.624390 
	C401.845093,358.099182 400.516693,357.573944 398.415466,357.005981 
M599.665405,361.049774 
	C601.607361,360.901215 603.549377,360.752625 605.491333,360.604034 
	C605.476135,360.104675 605.460999,359.605316 605.445801,359.105988 
	C601.425720,358.600189 596.241943,359.489807 593.622192,357.304932 
	C587.744812,352.403351 586.180603,359.315613 582.338562,359.127716 
	C582.397766,359.819397 582.456909,360.511078 582.516052,361.202759 
	C587.940796,361.202759 593.365540,361.202759 599.665405,361.049774 
M559.325378,360.419220 
	C557.335144,359.825165 555.370361,358.852753 553.349365,358.716980 
	C549.328674,358.446869 545.277039,358.637054 541.238220,358.637054 
	C541.123291,359.194244 541.008423,359.751434 540.893555,360.308624 
	C542.710632,360.868866 544.535583,361.919128 546.343201,361.890167 
	C550.464722,361.824188 554.577881,361.229187 559.325378,360.419220 
M640.635376,356.862488 
	C636.281189,355.049500 632.812927,355.884674 630.158813,360.075592 
	C637.490112,363.481262 640.139038,362.817139 640.635376,356.862488 
M570.229614,361.578094 
	C572.420105,361.334778 574.610596,361.091431 577.623779,360.756683 
	C573.029968,355.835449 571.773926,355.895416 567.286743,360.346954 
	C568.125488,360.692810 568.832825,360.984467 570.229614,361.578094 
M364.882965,360.410065 
	C365.515503,359.568115 366.148041,358.726166 367.115356,357.438629 
	C363.548065,357.076965 361.628693,357.224792 364.882965,360.410065 
M407.823486,359.644470 
	C406.759705,359.463470 405.695923,359.282440 404.632141,359.101440 
	C404.650635,359.689880 404.669128,360.278320 404.687622,360.866791 
	C405.661591,360.673737 406.635590,360.480713 407.823486,359.644470 
M611.706848,360.561127 
	C611.989136,360.291901 612.271423,360.022675 612.553650,359.753448 
	C612.442017,359.636658 612.239502,359.412201 612.231873,359.418579 
	C611.934204,359.669861 611.654236,359.942169 611.706848,360.561127 
z"/>
<path fill="#1F3651" opacity="1.000000" stroke="none" 
	d="
M672.988037,364.919739 
	C671.628296,363.172394 670.612854,361.523071 669.378723,359.518524 
	C671.754639,356.709503 678.444214,358.216095 677.976013,351.662262 
	C687.348755,351.230652 696.723694,351.169678 706.558655,351.567505 
	C705.973450,353.699493 705.007812,355.429535 703.864685,357.033051 
	C701.974060,359.685272 699.968994,362.255890 698.012085,364.860870 
	C689.785522,364.913177 681.558899,364.965485 672.988037,364.919739 
z"/>
<path fill="#102644" opacity="1.000000" stroke="none" 
	d="
M698.473145,364.946289 
	C699.968994,362.255890 701.974060,359.685272 703.864685,357.033051 
	C705.007812,355.429535 705.973450,353.699493 707.019897,351.662018 
	C715.582703,351.733582 724.144226,352.169373 733.109131,352.664490 
	C734.189331,353.074860 734.866211,353.425903 735.693726,354.304626 
	C733.992310,355.814728 732.219482,357.403992 730.272278,357.658447 
	C725.618958,358.266571 724.612793,360.986298 725.007690,364.965118 
	C716.316528,364.987335 707.625366,365.009552 698.473145,364.946289 
z"/>
<path fill="#1F3651" opacity="1.000000" stroke="none" 
	d="
M340.565002,351.215393 
	C342.408661,352.853271 343.509552,355.141602 345.228607,355.789215 
	C349.529968,357.409790 354.111633,358.286377 358.860840,360.687836 
	C357.427704,361.218750 355.977142,361.707733 354.566437,362.292847 
	C353.245300,362.840851 351.966400,363.490662 350.452087,364.476654 
	C343.927948,364.922729 337.620636,364.987823 330.948547,364.964478 
	C327.807465,362.437012 324.871063,360.152130 322.317291,357.498932 
	C320.877960,356.003571 320.069275,353.901184 318.973999,351.694031 
	C326.015533,351.250214 333.059601,351.184631 340.565002,351.215393 
z"/>
<path fill="#17314F" opacity="1.000000" stroke="none" 
	d="
M272.573547,576.421265 
	C273.117828,576.457642 273.865509,576.946167 273.861084,577.427795 
	C273.774567,586.796631 273.600281,596.164551 273.114014,605.807861 
	C272.664948,596.345398 272.545837,586.607788 272.573547,576.421265 
z"/>
<path fill="#17314F" opacity="1.000000" stroke="none" 
	d="
M272.528748,440.421875 
	C272.904358,445.864624 273.134277,451.756226 273.047363,457.837616 
	C272.614716,452.308502 272.498901,446.589600 272.528748,440.421875 
z"/>
<path fill="#17314F" opacity="1.000000" stroke="none" 
	d="
M272.560242,478.420074 
	C272.917847,483.201508 273.129272,488.430573 273.019409,493.843414 
	C272.603455,488.974030 272.508759,483.920868 272.560242,478.420074 
z"/>
<path fill="#17314F" opacity="1.000000" stroke="none" 
	d="
M272.764740,377.342896 
	C273.078613,380.208405 273.215302,383.435028 273.043152,386.844604 
	C272.685425,383.919708 272.636505,380.811859 272.764740,377.342896 
z"/>
<path fill="#17314F" opacity="1.000000" stroke="none" 
	d="
M272.640686,609.197388 
	C272.981995,610.172363 273.180695,611.419312 273.083374,612.873413 
	C272.690918,611.876892 272.594482,610.673096 272.640686,609.197388 
z"/>
<path fill="#17314F" opacity="1.000000" stroke="none" 
	d="
M272.561035,433.362122 
	C272.879547,434.247437 273.051544,435.522278 272.958435,436.912415 
	C272.600372,435.935730 272.507446,434.843689 272.561035,433.362122 
z"/>
<path fill="#17314F" opacity="1.000000" stroke="none" 
	d="
M272.554993,542.363220 
	C272.877167,543.246216 273.055695,544.519653 272.970184,545.910278 
	C272.607849,544.936157 272.509583,543.844971 272.554993,542.363220 
z"/>
<path fill="#17314F" opacity="1.000000" stroke="none" 
	d="
M272.576172,426.362152 
	C272.894348,427.245636 273.066376,428.518890 272.976013,429.909790 
	C272.619110,428.935638 272.524567,427.843750 272.576172,426.362152 
z"/>
<path fill="#17314F" opacity="1.000000" stroke="none" 
	d="
M272.586060,465.340027 
	C272.893921,465.926819 273.055328,466.881653 272.968384,467.932556 
	C272.626526,467.255127 272.533051,466.481567 272.586060,465.340027 
z"/>
<path fill="#17314F" opacity="1.000000" stroke="none" 
	d="
M272.560547,566.306519 
	C272.846893,566.610413 272.993378,567.247681 272.923096,567.956177 
	C272.611145,567.564941 272.515900,567.102356 272.560547,566.306519 
z"/>
<path fill="#1F3651" opacity="1.000000" stroke="none" 
	d="
M725.320190,365.133911 
	C724.612793,360.986298 725.618958,358.266571 730.272278,357.658447 
	C732.219482,357.403992 733.992310,355.814728 735.913757,354.489288 
	C737.547363,354.980316 739.111694,355.814392 740.984741,356.774536 
	C741.471619,357.137360 741.682312,357.340149 742.119080,357.613953 
	C742.474304,357.968506 742.678833,358.175995 743.112854,358.456665 
	C744.447815,359.830231 745.595947,361.088593 746.984863,362.557465 
	C747.752930,363.645233 748.280334,364.522522 748.839233,365.706879 
	C747.253540,367.176941 745.636230,368.339844 744.019165,369.502991 
	C742.139343,370.855194 740.259644,372.207550 738.152954,373.844238 
	C735.048584,369.486877 731.138672,366.283234 725.320190,365.133911 
z"/>
<path fill="#142D4C" opacity="1.000000" stroke="none" 
	d="
M344.819061,462.767517 
	C344.822876,454.467041 344.915314,446.634247 344.794464,438.804688 
	C344.735931,435.011322 346.334595,433.045197 350.028717,432.144135 
	C360.505341,429.588898 363.588745,426.009338 365.017914,415.093689 
	C365.487518,411.506958 367.382782,409.760590 370.972626,409.774384 
	C376.804535,409.796814 382.636475,409.820862 388.468414,409.819550 
	C452.786591,409.804993 517.104858,409.814514 581.422852,409.708710 
	C586.210510,409.700836 589.423950,410.449921 591.360291,415.756104 
	C592.253174,418.202881 596.448181,420.267853 599.482605,420.906830 
	C603.503052,421.753448 607.273865,419.446594 608.509033,415.404846 
	C609.922180,410.781036 612.675110,409.695648 617.051758,409.755890 
	C629.212891,409.923401 641.379272,409.853149 653.541748,409.718384 
	C658.409973,409.664459 660.804199,411.532257 661.262329,416.630798 
	C662.046631,425.359955 666.591431,430.337524 675.111206,431.975464 
	C679.550110,432.828857 681.336060,435.058075 681.259399,439.471069 
	C681.117554,447.633270 681.095276,455.802460 681.273743,463.963257 
	C681.361694,467.984680 679.845276,469.958893 675.827454,470.840912 
	C661.778992,473.924866 652.957520,485.291901 652.782104,500.082275 
	C652.603271,515.163574 661.240906,526.881531 675.419189,530.151001 
	C679.814880,531.164490 681.579590,533.207581 681.462585,537.669495 
	C681.253052,545.662048 681.286316,553.666321 681.447388,561.661072 
	C681.533875,565.952332 679.572266,567.936218 675.524231,568.853149 
	C666.251038,570.953430 662.354553,575.543823 661.312805,585.000305 
	C660.705933,590.508911 659.178284,592.042480 653.778687,592.070435 
	C641.282043,592.135193 628.783936,592.018494 616.288269,592.149841 
	C612.407654,592.190613 610.002808,590.904724 608.970520,586.976685 
	C607.713562,582.193726 604.300415,579.747803 599.434570,579.737000 
	C594.477417,579.726013 591.226013,582.347473 590.165955,587.199341 
	C589.114868,592.010376 585.693115,592.229065 581.784668,592.226196 
	C520.965698,592.181702 460.146667,592.186829 399.327667,592.180969 
	C390.496429,592.180115 381.664825,592.228271 372.834045,592.165833 
	C367.098602,592.125366 365.518738,590.560486 365.064728,584.840698 
	C364.412689,576.625854 359.731934,570.911316 351.381165,569.254761 
	C346.286774,568.244141 344.441101,565.842651 344.654236,560.714905 
	C344.986145,552.730896 344.804779,544.721558 344.690857,536.725037 
	C344.639893,533.148621 346.014160,531.414551 349.657166,530.572266 
	C364.120300,527.228394 373.543671,515.322998 373.625824,500.780212 
	C373.708984,486.055298 364.592712,474.320435 349.932159,470.879059 
	C345.396271,469.814362 344.512360,467.126251 344.819061,462.767517 
M381.164612,523.627380 
	C375.940826,528.876099 371.415344,535.260986 365.282318,539.030273 
	C359.939514,542.313904 357.457672,545.357544 358.523560,551.330627 
	C358.638916,551.977112 358.634613,552.675598 358.530853,553.325256 
	C358.092194,556.070984 359.257263,557.417419 361.849274,558.514832 
	C369.296783,561.668091 374.396027,567.284973 376.773163,575.006653 
	C377.591217,577.664124 378.785583,578.235718 381.322845,578.235413 
	C445.818878,578.227844 510.314972,578.314331 574.810852,578.254272 
	C576.453308,578.252747 578.654602,577.221985 579.649963,575.938293 
	C590.161804,562.381531 608.474365,562.154602 619.073059,575.526794 
	C619.994019,576.688721 621.547974,578.062317 622.842651,578.098572 
	C631.145142,578.330933 639.457214,578.217224 647.804077,578.217224 
	C650.003906,570.224182 653.891968,563.327881 661.231812,560.085510 
	C666.990173,557.541748 667.782471,554.015930 667.712036,548.572388 
	C667.657715,544.378967 666.596313,542.307434 662.700317,540.352722 
	C646.698853,532.324463 639.184753,518.596008 638.998474,501.101532 
	C638.809753,483.381073 646.213013,469.373871 662.317505,461.150726 
	C666.517212,459.006317 667.952393,456.749329 667.386108,452.490967 
	C667.211914,451.181000 667.219666,449.809570 667.391113,448.498596 
	C667.764160,445.645081 666.757019,444.080688 663.982849,442.845215 
	C656.815002,439.653076 651.735840,434.204071 649.271912,426.716461 
	C648.340454,423.885986 646.864014,423.281128 644.183533,423.359283 
	C637.688721,423.548553 631.168152,423.201660 624.696106,423.636993 
	C622.429688,423.789429 619.656250,425.051392 618.168640,426.737122 
	C608.157715,438.081635 591.098816,438.066620 581.232971,426.677002 
	C579.853455,425.084442 577.208740,423.717316 575.146606,423.712921 
	C510.484253,423.576202 445.821564,423.634644 381.158936,423.590057 
	C378.680664,423.588348 377.448547,424.055115 376.543915,426.698364 
	C373.952332,434.270752 368.909271,439.838318 361.493744,443.169861 
	C360.418915,443.652710 358.870850,444.702087 358.818756,445.566345 
	C358.568848,449.711792 358.086914,454.056854 359.096313,457.967377 
	C359.547821,459.716583 363.324554,460.579102 365.554169,461.907898 
	C366.980774,462.758087 368.394867,463.649689 369.717285,464.651154 
	C387.598206,478.192474 392.386963,501.831543 381.164612,523.627380 
z"/>
<path fill="#1F3651" opacity="1.000000" stroke="none" 
	d="
M456.380127,364.934631 
	C456.204041,361.704895 454.016602,361.977936 451.991486,361.988312 
	C449.157990,362.002838 446.324371,361.992004 442.591095,361.992004 
	C448.521484,353.229828 460.270111,352.814301 470.580231,359.745392 
	C469.052277,361.212860 467.543243,362.662109 466.024475,364.471802 
	C465.560547,364.900299 465.106354,364.968353 464.307007,364.567322 
	C463.265778,363.421021 462.569672,362.743774 461.873596,362.066528 
	C461.253693,362.988953 460.633759,363.911346 460.013855,364.833740 
	C458.934265,364.901703 457.854706,364.969696 456.380127,364.934631 
z"/>
<path fill="#1F3651" opacity="1.000000" stroke="none" 
	d="
M289.393250,371.877655 
	C285.831055,370.670471 284.827911,369.152710 288.302826,366.619476 
	C289.983093,365.394531 291.076080,363.396393 292.617828,361.942200 
	C295.897919,358.848328 297.978729,359.691589 299.036865,364.819702 
	C295.933746,367.387360 292.811554,369.555634 289.393250,371.877655 
z"/>
<path fill="#102644" opacity="1.000000" stroke="none" 
	d="
M460.405701,364.918030 
	C460.633759,363.911346 461.253693,362.988953 461.873596,362.066528 
	C462.569672,362.743774 463.265778,363.421021 463.973877,364.465881 
	C462.923096,364.889740 461.860321,364.946045 460.405701,364.918030 
z"/>
<path fill="#183151" opacity="1.000000" stroke="none" 
	d="
M508.645325,679.461914 
	C504.542480,673.706299 506.318451,667.332031 512.029785,667.166443 
	C514.359558,667.098877 517.939453,668.789307 518.809998,670.670471 
	C519.801270,672.812622 519.223755,676.597473 517.849182,678.702759 
	C515.790405,681.856018 512.207581,681.737244 508.645325,679.461914 
z"/>
<path fill="#1F3651" opacity="1.000000" stroke="none" 
	d="
M398.801880,357.027344 
	C400.516693,357.573944 401.845093,358.099182 403.173492,358.624390 
	C396.961121,362.938629 383.276001,362.400360 378.004974,358.426666 
	C385.714539,359.019958 391.384369,352.554749 398.801880,357.027344 
z"/>
<path fill="#1F3651" opacity="1.000000" stroke="none" 
	d="
M599.227844,361.126282 
	C593.365540,361.202759 587.940796,361.202759 582.516052,361.202759 
	C582.456909,360.511078 582.397766,359.819397 582.338562,359.127716 
	C586.180603,359.315613 587.744812,352.403351 593.622192,357.304932 
	C596.241943,359.489807 601.425720,358.600189 605.445801,359.105988 
	C605.460999,359.605316 605.476135,360.104675 605.491333,360.604034 
	C603.549377,360.752625 601.607361,360.901215 599.227844,361.126282 
z"/>
<path fill="#1F3651" opacity="1.000000" stroke="none" 
	d="
M559.009888,360.634155 
	C554.577881,361.229187 550.464722,361.824188 546.343201,361.890167 
	C544.535583,361.919128 542.710632,360.868866 540.893555,360.308624 
	C541.008423,359.751434 541.123291,359.194244 541.238220,358.637054 
	C545.277039,358.637054 549.328674,358.446869 553.349365,358.716980 
	C555.370361,358.852753 557.335144,359.825165 559.009888,360.634155 
z"/>
<path fill="#1F3651" opacity="1.000000" stroke="none" 
	d="
M640.765930,357.253723 
	C640.139038,362.817139 637.490112,363.481262 630.158813,360.075592 
	C632.812927,355.884674 636.281189,355.049500 640.765930,357.253723 
z"/>
<path fill="#1F3651" opacity="1.000000" stroke="none" 
	d="
M569.884888,361.427094 
	C568.832825,360.984467 568.125488,360.692810 567.286743,360.346954 
	C571.773926,355.895416 573.029968,355.835449 577.623779,360.756683 
	C574.610596,361.091431 572.420105,361.334778 569.884888,361.427094 
z"/>
<path fill="#1F3651" opacity="1.000000" stroke="none" 
	d="
M364.563110,360.527008 
	C361.628693,357.224792 363.548065,357.076965 367.115356,357.438629 
	C366.148041,358.726166 365.515503,359.568115 364.563110,360.527008 
z"/>
<path fill="#1F3651" opacity="1.000000" stroke="none" 
	d="
M407.716522,359.966064 
	C406.635590,360.480713 405.661591,360.673737 404.687622,360.866791 
	C404.669128,360.278320 404.650635,359.689880 404.632141,359.101440 
	C405.695923,359.282440 406.759705,359.463470 407.716522,359.966064 
z"/>
<path fill="#1F3651" opacity="1.000000" stroke="none" 
	d="
M611.539429,360.386414 
	C611.654236,359.942169 611.934204,359.669861 612.231873,359.418579 
	C612.239502,359.412201 612.442017,359.636658 612.553650,359.753479 
	C612.271423,360.022675 611.989136,360.291901 611.539429,360.386414 
z"/>
<path fill="#FEFEFE" opacity="1.000000" stroke="none" 
	d="
M381.363586,523.315979 
	C392.386963,501.831543 387.598206,478.192474 369.717285,464.651154 
	C368.394867,463.649689 366.980774,462.758087 365.554169,461.907898 
	C363.324554,460.579102 359.547821,459.716583 359.096313,457.967377 
	C358.086914,454.056854 358.568848,449.711792 358.818756,445.566345 
	C358.870850,444.702087 360.418915,443.652710 361.493744,443.169861 
	C368.909271,439.838318 373.952332,434.270752 376.543915,426.698364 
	C377.448547,424.055115 378.680664,423.588348 381.158936,423.590057 
	C445.821564,423.634644 510.484253,423.576202 575.146606,423.712921 
	C577.208740,423.717316 579.853455,425.084442 581.232971,426.677002 
	C591.098816,438.066620 608.157715,438.081635 618.168640,426.737122 
	C619.656250,425.051392 622.429688,423.789429 624.696106,423.636993 
	C631.168152,423.201660 637.688721,423.548553 644.183533,423.359283 
	C646.864014,423.281128 648.340454,423.885986 649.271912,426.716461 
	C651.735840,434.204071 656.815002,439.653076 663.982849,442.845215 
	C666.757019,444.080688 667.764160,445.645081 667.391113,448.498596 
	C667.219666,449.809570 667.211914,451.181000 667.386108,452.490967 
	C667.952393,456.749329 666.517212,459.006317 662.317505,461.150726 
	C646.213013,469.373871 638.809753,483.381073 638.998474,501.101532 
	C639.184753,518.596008 646.698853,532.324463 662.700317,540.352722 
	C666.596313,542.307434 667.657715,544.378967 667.712036,548.572388 
	C667.782471,554.015930 666.990173,557.541748 661.231812,560.085510 
	C653.891968,563.327881 650.003906,570.224182 647.804077,578.217224 
	C639.457214,578.217224 631.145142,578.330933 622.842651,578.098572 
	C621.547974,578.062317 619.994019,576.688721 619.073059,575.526794 
	C608.474365,562.154602 590.161804,562.381531 579.649963,575.938293 
	C578.654602,577.221985 576.453308,578.252747 574.810852,578.254272 
	C510.314972,578.314331 445.818878,578.227844 381.322845,578.235413 
	C378.785583,578.235718 377.591217,577.664124 376.773163,575.006653 
	C374.396027,567.284973 369.296783,561.668091 361.849274,558.514832 
	C359.257263,557.417419 358.092194,556.070984 358.530853,553.325256 
	C358.634613,552.675598 358.638916,551.977112 358.523560,551.330627 
	C357.457672,545.357544 359.939514,542.313904 365.282318,539.030273 
	C371.415344,535.260986 375.940826,528.876099 381.363586,523.315979 
M417.324127,500.844086 
	C418.325531,503.172607 418.815369,505.960663 420.420258,507.747009 
	C426.200623,514.181030 432.335724,520.298096 438.378510,526.494202 
	C442.669800,530.894470 445.788696,530.914917 450.264404,526.499878 
	C455.833710,521.005920 461.325439,515.433167 466.835602,509.879486 
	C477.035034,499.599396 487.197815,489.282745 497.432678,479.038116 
	C500.404541,476.063354 501.378326,472.869629 498.900024,469.239990 
	C496.247284,465.354919 491.316376,465.412048 487.336151,469.393219 
	C474.861725,481.870422 462.428925,494.389374 450.012573,506.924408 
	C448.197754,508.756561 446.560242,510.764313 445.137482,512.358337 
	C439.588776,507.007385 434.797791,502.393494 430.014130,497.772064 
	C425.007141,492.935028 420.699921,493.746674 417.324127,500.844086 
M599.617615,525.373596 
	C595.030945,526.053894 593.068909,528.799255 593.172241,533.334961 
	C593.270874,537.663818 593.079346,542.001953 593.265259,546.325256 
	C593.450989,550.642944 596.228943,553.226440 600.237183,553.197083 
	C604.254211,553.167664 606.857971,550.570251 606.998718,546.156982 
	C607.131409,541.996826 606.910522,537.824646 607.069153,533.666321 
	C607.252808,528.854065 605.120361,526.109009 599.617615,525.373596 
M593.138916,455.915222 
	C593.138184,459.906036 593.056702,463.898895 593.158508,467.887085 
	C593.269897,472.250732 595.696472,474.657013 599.977356,474.919434 
	C604.168457,475.176361 606.946228,472.308624 607.057373,467.726105 
	C607.154053,463.738129 607.073486,459.744659 607.015686,455.754456 
	C606.940491,450.565186 604.631470,447.676025 600.435120,447.424377 
	C596.350708,447.179474 593.807739,449.829224 593.138916,455.915222 
M593.222961,505.947784 
	C594.099182,511.549500 596.679016,514.100586 600.973389,513.611938 
	C605.168152,513.134583 607.089722,510.400574 607.067505,504.946014 
	C607.051941,501.125977 607.057800,497.305756 607.020935,493.485962 
	C606.977966,489.043823 604.485107,486.731995 600.280823,486.385040 
	C596.233704,486.050995 593.323364,489.079010 593.191528,493.600311 
	C593.080261,497.416626 593.201965,501.239746 593.222961,505.947784 
z"/>
<path fill="#142E4E" opacity="1.000000" stroke="none" 
	d="
M417.449951,500.484131 
	C420.699921,493.746674 425.007141,492.935028 430.014130,497.772064 
	C434.797791,502.393494 439.588776,507.007385 445.137482,512.358337 
	C446.560242,510.764313 448.197754,508.756561 450.012573,506.924408 
	C462.428925,494.389374 474.861725,481.870422 487.336151,469.393219 
	C491.316376,465.412048 496.247284,465.354919 498.900024,469.239990 
	C501.378326,472.869629 500.404541,476.063354 497.432678,479.038116 
	C487.197815,489.282745 477.035034,499.599396 466.835602,509.879486 
	C461.325439,515.433167 455.833710,521.005920 450.264404,526.499878 
	C445.788696,530.914917 442.669800,530.894470 438.378510,526.494202 
	C432.335724,520.298096 426.200623,514.181030 420.420258,507.747009 
	C418.815369,505.960663 418.325531,503.172607 417.449951,500.484131 
z"/>
<path fill="#183151" opacity="1.000000" stroke="none" 
	d="
M599.996094,525.374146 
	C605.120361,526.109009 607.252808,528.854065 607.069153,533.666321 
	C606.910522,537.824646 607.131409,541.996826 606.998718,546.156982 
	C606.857971,550.570251 604.254211,553.167664 600.237183,553.197083 
	C596.228943,553.226440 593.450989,550.642944 593.265259,546.325256 
	C593.079346,542.001953 593.270874,537.663818 593.172241,533.334961 
	C593.068909,528.799255 595.030945,526.053894 599.996094,525.374146 
z"/>
<path fill="#183151" opacity="1.000000" stroke="none" 
	d="
M593.138916,455.471130 
	C593.807739,449.829224 596.350708,447.179474 600.435120,447.424377 
	C604.631470,447.676025 606.940491,450.565186 607.015686,455.754456 
	C607.073486,459.744659 607.154053,463.738129 607.057373,467.726105 
	C606.946228,472.308624 604.168457,475.176361 599.977356,474.919434 
	C595.696472,474.657013 593.269897,472.250732 593.158508,467.887085 
	C593.056702,463.898895 593.138184,459.906036 593.138916,455.471130 
z"/>
<path fill="#183151" opacity="1.000000" stroke="none" 
	d="
M593.221741,505.503845 
	C593.201965,501.239746 593.080261,497.416626 593.191528,493.600311 
	C593.323364,489.079010 596.233704,486.050995 600.280823,486.385040 
	C604.485107,486.731995 606.977966,489.043823 607.020935,493.485962 
	C607.057800,497.305756 607.051941,501.125977 607.067505,504.946014 
	C607.089722,510.400574 605.168152,513.134583 600.973389,513.611938 
	C596.679016,514.100586 594.099182,511.549500 593.221741,505.503845 
z"/>
</svg>